<?xml version="1.0" ?><!DOCTYPE svg  PUBLIC '-//W3C//DTD SVG 1.1//EN'  'http://www.w3.org/Graphics/SVG/1.1/DTD/svg11.dtd'><svg enable-background="new 0 0 128 128" height="128px" id="Layer_1" version="1.1" viewBox="0 0 128 128" width="128px" xml:space="preserve" xmlns="http://www.w3.org/2000/svg" xmlns:xlink="http://www.w3.org/1999/xlink"><g><g><path d="M64,0C28.656,0,0,28.656,0,64s28.656,64,64,64s64-28.656,64-64S99.344,0,64,0z M64,120    C33.125,120,8,94.875,8,64S33.125,8,64,8s56,25.125,56,56S94.875,120,64,120z" fill="#B0BEC5"/></g></g><path d="M92.281,80.969L72,60.688V40c0-4.422-3.578-8-8-8s-8,3.578-8,8v27.313l24.969,24.969  c3.125,3.133,8.188,3.133,11.313,0C95.414,89.156,95.414,84.092,92.281,80.969z" fill="#03A9F4"/></svg>